<svg xmlns="http://www.w3.org/2000/svg" viewBox="0 0 256 256"><defs>
<linearGradient id="bg" x1="0" y1="0" x2="1" y2="1"><stop stop-color="#9672d7"/><stop offset=".52" stop-color="#171525"/><stop offset="1" stop-color="#05070d"/></linearGradient>
<linearGradient id="hair" x1="0" y1="0" x2=".9" y2="1"><stop stop-color="#b18bf1"/><stop offset=".18" stop-color="#2c203e"/><stop offset="1" stop-color="#09080e"/></linearGradient>
<linearGradient id="cloth" x1="0" y1="0" x2="1" y2="1"><stop stop-color="#b18bf1"/><stop offset=".23" stop-color="#272231"/><stop offset="1" stop-color="#07090f"/></linearGradient>
<radialGradient id="skin"><stop stop-color="#fff" stop-opacity=".22"/><stop offset="1" stop-color="#fff" stop-opacity="0"/></radialGradient>
<filter id="glow"><feGaussianBlur stdDeviation="4" result="b"/><feMerge><feMergeNode in="b"/><feMergeNode in="SourceGraphic"/></feMerge></filter>
<filter id="soft"><feDropShadow dx="0" dy="8" stdDeviation="8" flood-color="#000" flood-opacity=".45"/></filter>
<clipPath id="clip"><rect x="8" y="8" width="240" height="240" rx="42"/></clipPath>
</defs><g clip-path="url(#clip)"><rect width="256" height="256" rx="48" fill="url(#bg)"/><circle cx="31" cy="38" r="2" fill="#fff" opacity="0.52"/><circle cx="211" cy="44" r="1.7" fill="#fff" opacity="0.5"/><circle cx="226" cy="177" r="2.2" fill="#fff" opacity="0.28"/><circle cx="39" cy="201" r="1.4" fill="#fff" opacity="0.35"/><circle cx="194" cy="203" r="1.3" fill="#fff" opacity="0.4"/><circle cx="54" cy="73" r="1.2" fill="#fff" opacity="0.32"/><circle cx="128" cy="108" r="93" fill="none" stroke="#b18bf1" stroke-opacity=".12" stroke-width="13"/><circle cx="128" cy="108" r="75" fill="none" stroke="#fff" stroke-opacity=".06" stroke-width="1"/><path d="M65 120 Q63 59 128 52 Q193 58 191 122 L181 166 Q164 185 128 188 Q92 185 75 166Z" fill="#edbfa3" filter="url(#soft)"/><ellipse cx="109" cy="101" rx="42" ry="49" fill="url(#skin)"/><path d="M65 104 Q66 49 126 46 Q181 47 193 99 Q172 78 157 86 Q146 69 132 83 Q118 64 103 82 Q86 71 65 104Z" fill="url(#hair)"/><path d="M80 98 Q96 87 113 92 M143 92 Q160 87 177 99" fill="none" stroke="#2c203e" stroke-width="5.4" stroke-linecap="round"/><path d="M83 116 Q98 107 112 115" fill="none" stroke="#2d2020" stroke-width="4" stroke-linecap="round"/><path d="M144 115 Q159 107 174 116" fill="none" stroke="#2d2020" stroke-width="4" stroke-linecap="round"/><ellipse cx="98" cy="120" rx="6.8" ry="8.4" fill="#2c3543"/><ellipse cx="158" cy="120" rx="6.8" ry="8.4" fill="#2c3543"/><circle cx="100" cy="117" r="2" fill="#fff"/><circle cx="160" cy="117" r="2" fill="#fff"/><path d="M128 126 q-4 13 4 18" fill="none" stroke="#a97868" stroke-width="2.6" stroke-linecap="round"/><path d="M109 153 Q128 163 147 153" fill="none" stroke="#8f5752" stroke-width="3.2" stroke-linecap="round"/><path d="M93 168 Q128 183 164 168 Q153 194 128 197 Q103 194 93 168Z" fill="#edbfa3"/><rect x="112" y="172" width="32" height="31" rx="12" fill="#edbfa3"/><path d="M36 256 Q48 190 101 181 L128 204 L155 181 Q208 190 220 256Z" fill="url(#cloth)"/><path d="M101 183 l27 23 -20 48 H79 L88 197Z" fill="#13141b"/><path d="M155 183 l-27 23 20 48 h29 l-9 -57Z" fill="#171821"/><path d="M117 195 l11 11 11 -11 -4 59 h-14Z" fill="#b18bf1"/><path d="M101 183 l27 23 27 -23" fill="none" stroke="#fff" stroke-opacity=".28" stroke-width="2"/><circle cx="181" cy="126" r="4" fill="#b18bf1"/></g><rect x="8" y="8" width="240" height="240" rx="42" fill="none" stroke="#b18bf1" stroke-opacity=".36" stroke-width="2"/><text x="128" y="241" text-anchor="middle" font-family="Arial,sans-serif" font-size="7" font-weight="900" fill="#fff" opacity=".52" letter-spacing="2.2">JUNJA CASINO PORTRAIT</text></svg>