<svg xmlns="http://www.w3.org/2000/svg" viewBox="0 0 1100 740">
<defs>
 <radialGradient id="c" cx="50%" cy="42%"><stop stop-color="#233041"/><stop offset=".42" stop-color="#161513"/><stop offset="1" stop-color="#050506"/></radialGradient>
 <linearGradient id="stone" x2="0" y2="1"><stop stop-color="#48423a"/><stop offset="1" stop-color="#1c1b1c"/></linearGradient>
 <radialGradient id="fire"><stop stop-color="#fff3a1"/><stop offset=".25" stop-color="#ffb521"/><stop offset=".65" stop-color="#ea4a08"/><stop offset="1" stop-color="#e84200" stop-opacity="0"/></radialGradient>
 <filter id="blur"><feGaussianBlur stdDeviation="8"/></filter>
</defs>
<rect width="1100" height="740" fill="url(#c)"/>
<path d="M0 0H1100V740H0Z" fill="none" stroke="#2b1e13" stroke-width="55"/>
<g fill="#201b18" stroke="#4b3928" stroke-width="4" opacity=".95">
 <path d="M0 95 95 30 180 90 250 20 340 92 430 18 520 85 610 12 705 90 800 25 895 92 980 32 1100 105V0H0Z"/>
 <path d="M0 740V620L90 650 155 595 245 646 340 600 430 650 530 600 625 650 720 600 820 650 920 590 1010 650 1100 610V740Z"/>
</g>
<g opacity=".8"><circle cx="115" cy="210" r="90" fill="url(#fire)" filter="url(#blur)"/><circle cx="990" cy="220" r="90" fill="url(#fire)" filter="url(#blur)"/></g>
<g fill="#4b2910" stroke="#c67a20" stroke-width="5"><rect x="102" y="205" width="25" height="120" rx="5"/><rect x="978" y="215" width="25" height="120" rx="5"/></g>
<g fill="url(#stone)" stroke="#6b5a45" stroke-width="3">
 <rect x="180" y="515" width="740" height="74" rx="15"/><rect x="230" y="440" width="640" height="70" rx="14"/><rect x="280" y="365" width="540" height="68" rx="14"/>
</g>
<g fill="#b36e16" opacity=".8"><circle cx="110" cy="650" r="18"/><circle cx="145" cy="660" r="14"/><circle cx="950" cy="650" r="17"/><circle cx="985" cy="660" r="13"/></g>
<g fill="#2cb5ff" opacity=".8"><path d="m170 610 15-45 18 44Z"/><path d="m910 600 15-55 20 54Z"/></g>
</svg>