<svg xmlns="http://www.w3.org/2000/svg" viewBox="0 0 128 128">
<defs><linearGradient id="bg" x1="0" y1="0" x2="1" y2="1"><stop stop-color="#ff6f8e"/><stop offset="1" stop-color="#101728"/></linearGradient></defs>
<rect width="128" height="128" rx="30" fill="url(#bg)"/>
<circle cx="64" cy="58" r="37" fill="#f4c6a4" stroke="#ffffff55" stroke-width="2"/>
<path d="M20 42 Q29 15 62 16 Q92 16 106 43 Q91 30 77 35 Q59 24 38 39Z" fill="#161a2b"/><path d="M25 27 Q17 45 27 54" stroke="#161a2b" stroke-width="8" stroke-linecap="round"/>
<circle cx="50" cy="58" r="4.2" fill="#1a1515"/><circle cx="78" cy="58" r="4.2" fill="#1a1515"/>
<circle cx="49" cy="56.8" r="1.2" fill="#fff"/><circle cx="77" cy="56.8" r="1.2" fill="#fff"/>
<path d="M51 76 Q64 86 77 76" fill="none" stroke="#8e3d3d" stroke-width="3.4" stroke-linecap="round"/>
<circle cx="39" cy="70" r="5" fill="#ff889955" /><circle cx="89" cy="70" r="5" fill="#ff889955"/>
<path d="M21 128 Q25 94 64 94 Q103 94 107 128Z" fill="#ff6f8e"/>
<circle cx="103" cy="24" r="12" fill="#5edaa0" stroke="#fff8" stroke-width="2"/><text x="103" y="29" text-anchor="middle" font-family="Arial" font-size="14" font-weight="900" fill="#101018">J</text>
</svg>