<svg xmlns="http://www.w3.org/2000/svg" viewBox="0 0 420 520"><defs><linearGradient id="bg" x1="0" y1="0" x2="1" y2="1"><stop stop-color="#111a39"/><stop offset="1" stop-color="#4d183d"/></linearGradient><linearGradient id="han" x1="0" y1="0" x2="1" y2="1"><stop stop-color="#ffdf8c"/><stop offset="1" stop-color="#f06b8e"/></linearGradient></defs><rect width="420" height="520" rx="42" fill="url(#bg)"/><circle cx="210" cy="180" r="126" fill="#ffe4d2"/><path d="M92 185Q92 42 211 45Q333 50 330 191Q300 119 248 105Q179 147 92 185" fill="#201b36"/><path d="M108 157Q143 90 210 91Q278 90 314 157L292 103Q207 35 126 104Z" fill="#34274f"/><ellipse cx="164" cy="181" rx="20" ry="27" fill="#4b2d71"/><ellipse cx="256" cy="181" rx="20" ry="27" fill="#4b2d71"/><circle cx="170" cy="173" r="7" fill="#fff"/><circle cx="262" cy="173" r="7" fill="#fff"/><path d="M179 229Q210 250 242 229" fill="none" stroke="#c85d70" stroke-width="7" stroke-linecap="round"/><path d="M116 279Q210 248 305 279L350 490H70Z" fill="url(#han)"/><path d="M210 275L210 490M113 330H307" stroke="#fff2c7" stroke-width="9" opacity=".8"/><path d="M78 342Q30 373 52 430Q72 459 105 429" fill="#ffe4d2"/><path d="M341 342Q390 373 368 430Q348 459 315 429" fill="#ffe4d2"/><g stroke="#f8dfaa" stroke-width="13" stroke-linecap="round"><path d="M48 400l54-43"/><path d="M51 421l59-38"/><path d="M313 383l58 39"/><path d="M318 358l54 43"/></g><g fill="#f7e5b4"><circle cx="54" cy="398" r="7"/><circle cx="366" cy="420" r="7"/></g><text x="210" y="478" text-anchor="middle" fill="#331d37" font-size="27" font-weight="900" font-family="sans-serif">YUT MASTER</text></svg>