<svg xmlns="http://www.w3.org/2000/svg" viewBox="0 0 640 900"><defs><radialGradient id="g"><stop stop-color="#ffd86a" stop-opacity=".55"/><stop offset="1" stop-color="#120a08"/></radialGradient><filter id="x"><feGaussianBlur stdDeviation="10" result="b"/><feMerge><feMergeNode in="b"/><feMergeNode in="SourceGraphic"/></feMerge></filter></defs><rect width="640" height="900" rx="42" fill="#120a08"/><rect x="10" y="10" width="620" height="880" rx="34" fill="url(#g)" stroke="#ffd86a" stroke-width="8"/><text x="320" y="150" text-anchor="middle" font-size="105" fill="#ffd86a" filter="url(#x)">♛</text><path d="M140 810 Q160 520 250 430 Q320 390 390 430 Q480 520 500 810Z" fill="#08090d" stroke="#ffd86a" stroke-width="10"/><circle cx="320" cy="330" r="115" fill="#edc6ad"/><path d="M205 335 Q210 170 330 180 Q455 190 430 370 Q375 245 225 285Z" fill="#09080c"/><path d="M258 335 q30 24 58 0 M326 335 q30 24 58 0" fill="none" stroke="#2b1720" stroke-width="10" stroke-linecap="round"/><path d="M290 390 Q320 410 350 390" fill="none" stroke="#9f4f59" stroke-width="7"/><path d="M220 505 L320 570 L420 505 L390 650 L250 650Z" fill="#28140c" stroke="#ffd86a" stroke-width="7"/><text x="320" y="735" text-anchor="middle" font-family="sans-serif" font-weight="900" font-size="50" fill="#ffd86a" filter="url(#x)">GOD JUNJA</text><text x="320" y="795" text-anchor="middle" font-family="sans-serif" font-size="24" fill="#fff">ABSOLUTE SIGNATURE</text><text x="320" y="845" text-anchor="middle" font-family="sans-serif" font-weight="900" font-size="24" fill="#ffd86a">갓준자 · ADMIN EXCLUSIVE</text></svg>