<svg xmlns="http://www.w3.org/2000/svg" viewBox="0 0 240 340"><defs><linearGradient id="g" x2="1" y2="1"><stop stop-color="#fff7d8"/><stop offset=".4" stop-color="#bf944a"/><stop offset=".65" stop-color="#fff2bb"/><stop offset="1" stop-color="#d5af64"/></linearGradient><radialGradient id="v"><stop stop-color="#53377e"/><stop offset="1" stop-color="#160e29"/></radialGradient></defs><rect x="3" y="3" width="234" height="334" rx="19" fill="url(#v)" stroke="url(#g)" stroke-width="6"/><rect x="16" y="16" width="208" height="308" rx="12" fill="none" stroke="url(#g)"/><path d="m120 42 87 128-87 128-87-128Z" fill="none" stroke="url(#g)" stroke-width="2"/><path d="m120 67 65 103-65 103-65-103Z" fill="none" stroke="#c6a76d"/><circle cx="120" cy="170" r="57" fill="#f7efe0" stroke="url(#g)" stroke-width="7"/><text x="120" y="194" text-anchor="middle" font-family="Georgia,serif" font-size="70" fill="#4b2c6e">J</text><path d="m98 109-6-20 18 9 10-19 10 19 18-9-6 20Z" fill="url(#g)"/><g fill="url(#g)"><path d="m30 35 8 8-8 8-8-8Zm180 0 8 8-8 8-8-8ZM30 289l8 8-8 8-8-8Zm180 0 8 8-8 8-8-8Z"/></g><text x="120" y="312" text-anchor="middle" font-family="Georgia,serif" font-size="11" letter-spacing="3" fill="#f4d99b">ONE OF ONE</text></svg>
