<svg xmlns="http://www.w3.org/2000/svg" viewBox="0 0 260 180"><defs><linearGradient id="m" x2="0" y2="1"><stop stop-color="#ffdf72"/><stop offset=".42" stop-color="#d21f12"/><stop offset="1" stop-color="#6d0805"/></linearGradient><filter id="s"><feGaussianBlur stdDeviation="2" result="x"/><feMerge><feMergeNode in="x"/><feMergeNode in="SourceGraphic"/></feMerge></filter></defs><g filter="url(#s)"><g fill="url(#m)" stroke="#ffdf72" stroke-width="1"><ellipse cx="42" cy="56" rx="5" ry="12" transform="rotate(-38 42 56)"/><ellipse cx="218" cy="56" rx="5" ry="12" transform="rotate(38 218 56)"/><ellipse cx="40" cy="69" rx="5" ry="12" transform="rotate(-38 40 69)"/><ellipse cx="220" cy="69" rx="5" ry="12" transform="rotate(38 220 69)"/><ellipse cx="38" cy="82" rx="5" ry="12" transform="rotate(-38 38 82)"/><ellipse cx="222" cy="82" rx="5" ry="12" transform="rotate(38 222 82)"/><ellipse cx="36" cy="95" rx="5" ry="12" transform="rotate(-38 36 95)"/><ellipse cx="224" cy="95" rx="5" ry="12" transform="rotate(38 224 95)"/><ellipse cx="34" cy="108" rx="5" ry="12" transform="rotate(-38 34 108)"/><ellipse cx="226" cy="108" rx="5" ry="12" transform="rotate(38 226 108)"/><ellipse cx="32" cy="121" rx="5" ry="12" transform="rotate(-38 32 121)"/><ellipse cx="228" cy="121" rx="5" ry="12" transform="rotate(38 228 121)"/><ellipse cx="30" cy="134" rx="5" ry="12" transform="rotate(-38 30 134)"/><ellipse cx="230" cy="134" rx="5" ry="12" transform="rotate(38 230 134)"/></g><path d="M130 39l58 18-7 72-51 34-51-34-7-72z" fill="#6d0805" stroke="url(#m)" stroke-width="7"/><path d="M130 48l47 14-6 60-41 28-41-28-6-60z" fill="none" stroke="#ffdf72" stroke-opacity=".55" stroke-width="2"/><path d="M91 48l-5-29 23 15 20-27 20 27 25-15-7 30z" fill="url(#m)" stroke="#ffdf72" stroke-width="3"/><circle cx="86" cy="18" r="4" fill="#ffdf72"/><circle cx="129" cy="7" r="4" fill="#ffdf72"/><circle cx="174" cy="18" r="4" fill="#ffdf72"/><text x="130" y="121" text-anchor="middle" font-family="Georgia,serif" font-size="70" font-weight="700" fill="#ffdf72" stroke="#6d0805" stroke-width="2">1</text><path d="M72 137h116l-13 27H85z" fill="url(#m)" stroke="#ffdf72" stroke-width="2"/><text x="130" y="158" text-anchor="middle" font-family="Georgia,serif" font-size="17" font-weight="700" fill="#3b1606">JUNJA</text></g></svg>