<svg xmlns="http://www.w3.org/2000/svg" viewBox="0 0 260 180"><defs><linearGradient id="m" x2="0" y2="1"><stop stop-color="#ffef9a"/><stop offset=".45" stop-color="#d21d0f"/><stop offset="1" stop-color="#7a0805"/></linearGradient><filter id="g"><feGaussianBlur stdDeviation="3" result="b"/><feMerge><feMergeNode in="b"/><feMergeNode in="SourceGraphic"/></feMerge></filter></defs><g filter="url(#g)"><path d="M78 47C50 55 34 75 28 105c14-21 28-31 47-36M72 62C48 74 41 91 40 118c12-18 23-28 39-35M182 47c28 8 44 28 50 58-14-21-28-31-47-36M188 62c24 12 31 29 32 56-12-18-23-28-39-35" fill="none" stroke="url(#m)" stroke-width="7" stroke-linecap="round"/><path d="M130 42l58 18-8 70-50 35-50-35-8-70z" fill="#7a0805" stroke="url(#m)" stroke-width="8"/><path d="M130 51l47 14-7 58-40 29-40-29-7-58z" fill="none" stroke="#ffef9a" stroke-opacity=".55" stroke-width="2"/><path d="M92 48l-5-31 22 17 20-27 20 27 24-17-6 32z" fill="url(#m)" stroke="#ffef9a" stroke-width="3"/><circle cx="88" cy="16" r="4" fill="#ffef9a"/><circle cx="129" cy="7" r="4" fill="#ffef9a"/><circle cx="174" cy="16" r="4" fill="#ffef9a"/><text x="130" y="120" text-anchor="middle" font-family="Georgia,serif" font-size="72" font-weight="700" fill="#ffef9a" stroke="#7a0805" stroke-width="2">1</text><path d="M73 139h114l-13 25H86z" fill="url(#m)" stroke="#ffef9a" stroke-width="2"/><text x="130" y="158" text-anchor="middle" font-family="Georgia,serif" font-size="17" font-weight="700" fill="#381408">JUNJA</text></g></svg>